<svg width="33" height="32" viewBox="0 0 33 32" fill="none" xmlns="http://www.w3.org/2000/svg">
    <path fill-rule="evenodd" clip-rule="evenodd" d="M16.04 4C13.252 4 10.9705 6.01731 10.893 8.55088L10.8556 10.0466C8.57778 10.1363 6.67556 11.8459 6.35949 14.1216L5.04581 22.6201C4.65091 25.4634 6.85953 28 9.73011 28H22.5134C25.384 28 27.5926 25.4634 27.1977 22.6201L25.884 14.1216C25.5604 11.7917 23.5741 10.055 21.2243 10.043L21.187 8.55089C21.1095 6.01732 18.828 4 16.04 4ZM19.7548 11.6194L19.8117 13.8933C19.8233 14.2719 20.1702 14.5702 20.5867 14.5597C21.0031 14.5492 21.3313 14.2338 21.3197 13.8552L21.2638 11.62C22.8094 11.651 24.1091 12.801 24.3226 14.3385L25.6363 22.837C25.8996 24.7325 24.4271 26.4236 22.5134 26.4236H9.73011C7.81639 26.4236 6.34397 24.7325 6.60724 22.837L7.92093 14.3385C8.12689 12.8556 9.34315 11.7332 10.816 11.6275L10.7603 13.8552C10.7487 14.2338 11.0769 14.5492 11.4933 14.5597C11.9098 14.5702 12.2567 14.2719 12.2683 13.8933L12.3252 11.6194H19.7548ZM19.7154 10.0429L19.679 8.58897C19.6242 6.7977 18.0112 5.37143 16.04 5.37143C14.0688 5.37143 12.4558 6.7977 12.401 8.58897L12.3646 10.0429H19.7154Z" fill="#282D46"/>
</svg>
