<svg width="18" height="18" viewBox="0 0 18 18" fill="none" xmlns="http://www.w3.org/2000/svg">
    <path d="M14.9779 3H3.02209C1.90713 3 1 3.90713 1 5.02209V12.6978C1 13.8128 1.90713 14.7199 3.02209 14.7199H14.9779C16.0929 14.7199 17 13.8128 17 12.6978V5.02209C17 3.90713 16.0929 3 14.9779 3ZM14.662 4.30435L9 8.67817L3.338 4.30435H14.662ZM14.9779 13.4157H3.02209C2.62635 13.4157 2.30435 13.0937 2.30435 12.6979V5.15409L8.6013 10.0184C8.7187 10.1091 8.85939 10.1544 9 10.1544C9.14061 10.1544 9.2813 10.1091 9.3987 10.0184L15.6957 5.15409V12.6978C15.6957 13.0937 15.3737 13.4157 14.9779 13.4157Z" fill="#282D46"/>
</svg>
