<svg width="18" height="18" viewBox="0 0 18 18" fill="none" xmlns="http://www.w3.org/2000/svg">
    <path fill-rule="evenodd" clip-rule="evenodd" d="M12.2327 2.488C11.3893 2.44933 11.136 2.44133 9 2.44133C6.864 2.44133 6.61067 2.44933 5.76733 2.488C5.26011 2.49402 4.75769 2.58715 4.282 2.76333C3.93689 2.89646 3.62348 3.10036 3.36192 3.36192C3.10036 3.62348 2.89646 3.93689 2.76333 4.282C2.58715 4.75769 2.49402 5.26011 2.488 5.76733C2.44933 6.61067 2.44133 6.864 2.44133 9C2.44133 11.136 2.44933 11.3893 2.488 12.2327C2.49402 12.7399 2.58715 13.2423 2.76333 13.718C2.89646 14.0631 3.10036 14.3765 3.36192 14.6381C3.62348 14.8996 3.93689 15.1035 4.282 15.2367C4.75769 15.4128 5.26011 15.506 5.76733 15.512C6.61067 15.5507 6.864 15.5587 9 15.5587C11.136 15.5587 11.3893 15.5507 12.2327 15.512C12.7399 15.506 13.2423 15.4128 13.718 15.2367C14.0631 15.1035 14.3765 14.8996 14.6381 14.6381C14.8996 14.3765 15.1035 14.0631 15.2367 13.718C15.4128 13.2423 15.506 12.7399 15.512 12.2327C15.5507 11.3893 15.5587 11.1373 15.5587 9.00067C15.5587 6.864 15.5507 6.61067 15.512 5.76733C15.506 5.26011 15.4128 4.75769 15.2367 4.282C15.1035 3.93689 14.8996 3.62348 14.6381 3.36192C14.3765 3.10036 14.0631 2.89646 13.718 2.76333C13.2423 2.58715 12.7399 2.49402 12.2327 2.488ZM5.70133 1.048C6.55467 1.00933 6.82733 1 9 1C11.1733 1 11.4447 1.00867 12.298 1.04867C12.9617 1.06178 13.6183 1.18733 14.24 1.42C14.7715 1.62553 15.2542 1.93985 15.6572 2.34281C16.0601 2.74577 16.3745 3.22848 16.58 3.76C16.8128 4.38144 16.9386 5.03785 16.952 5.70133C16.9907 6.55467 17 6.82667 17 9C17 11.1733 16.9907 11.4447 16.952 12.298C16.9389 12.9617 16.8133 13.6183 16.5807 14.24C16.3751 14.7715 16.0608 15.2542 15.6579 15.6572C15.2549 16.0601 14.7722 16.3745 14.2407 16.58C13.619 16.8129 12.9624 16.9387 12.2987 16.952C11.4453 16.9907 11.1727 17 9 17C6.82733 17 6.55533 16.9907 5.702 16.952C5.03829 16.9387 4.38165 16.8129 3.76 16.58C3.22848 16.3745 2.74577 16.0601 2.34281 15.6572C1.93985 15.2542 1.62553 14.7715 1.42 14.24C1.18718 13.6186 1.0614 12.9622 1.048 12.2987C1.00933 11.4453 1 11.1733 1 9C1 6.82667 1.00933 6.55533 1.048 5.702C1.06132 5.03829 1.18711 4.38165 1.42 3.76C1.62553 3.22848 1.93985 2.74577 2.34281 2.34281C2.74577 1.93985 3.22848 1.62553 3.76 1.42C4.38144 1.18718 5.03785 1.0614 5.70133 1.048ZM13.2707 5.6893C13.8009 5.6893 14.2307 5.25949 14.2307 4.7293C14.2307 4.19911 13.8009 3.7693 13.2707 3.7693C12.7405 3.7693 12.3107 4.19911 12.3107 4.7293C12.3107 5.25949 12.7405 5.6893 13.2707 5.6893ZM8.99998 4.892C8.18749 4.892 7.39325 5.13293 6.71769 5.58433C6.04214 6.03572 5.5156 6.6773 5.20468 7.42794C4.89376 8.17858 4.8124 9.00456 4.97091 9.80143C5.12942 10.5983 5.52067 11.3303 6.09518 11.9048C6.6697 12.4793 7.40167 12.8706 8.19855 13.0291C8.99542 13.1876 9.8214 13.1062 10.572 12.7953C11.3227 12.4844 11.9643 11.9578 12.4157 11.2823C12.8671 10.6067 13.108 9.81249 13.108 9C13.108 7.91049 12.6752 6.86561 11.9048 6.09521C11.1344 5.32481 10.0895 4.892 8.99998 4.892ZM8.99998 11.6667C8.47256 11.6667 7.95699 11.5103 7.51846 11.2173C7.07993 10.9242 6.73813 10.5078 6.5363 10.0205C6.33446 9.53322 6.28166 8.99705 6.38455 8.47976C6.48744 7.96248 6.74142 7.48733 7.11436 7.11439C7.4873 6.74145 7.96245 6.48747 8.47974 6.38458C8.99702 6.28168 9.5332 6.33449 10.0205 6.53632C10.5077 6.73816 10.9242 7.07995 11.2172 7.51848C11.5102 7.95701 11.6666 8.47259 11.6666 9C11.6666 9.70725 11.3857 10.3855 10.8856 10.8856C10.3855 11.3857 9.70722 11.6667 8.99998 11.6667Z" fill="#282D46"/>
</svg>
