<svg width="18" height="18" viewBox="0 0 18 18" fill="none" xmlns="http://www.w3.org/2000/svg">
    <path fill-rule="evenodd" clip-rule="evenodd" d="M1 2.8052C1 1.80931 1.80931 1 2.8052 1H5.51544C6.51133 1 7.32065 1.80931 7.32065 2.8052C7.32065 3.64342 7.4524 4.46489 7.71091 5.24679L7.7142 5.25675C7.91226 5.8903 7.75592 6.574 7.30252 7.05287L6.34993 8.31859C7.19333 9.78926 8.19982 10.7955 9.68314 11.6499L10.9865 10.6655C11.4434 10.2312 12.15 10.0923 12.761 10.301C13.5362 10.5563 14.3557 10.6871 15.1948 10.6871C16.1907 10.6871 17 11.4964 17 12.4923V15.1948C17 16.1907 16.1907 17 15.1948 17C7.36761 17 1 10.6324 1 2.8052ZM2.8052 2.28736C2.5203 2.28736 2.28736 2.5203 2.28736 2.8052C2.28736 9.9214 8.0786 15.7126 15.1948 15.7126C15.4797 15.7126 15.7126 15.4797 15.7126 15.1948V12.4923C15.7126 12.2074 15.4797 11.9745 15.1948 11.9745C14.2201 11.9745 13.263 11.8222 12.3541 11.5223L12.3461 11.5197C12.1533 11.4533 11.9515 11.5187 11.8671 11.6048L11.8336 11.639L9.79692 13.1772L9.4341 12.9835C7.40569 11.9009 6.0861 10.5829 5.01647 8.56594L4.82471 8.20434L6.32535 6.21041L6.35732 6.17844C6.49413 6.04163 6.54646 5.84119 6.48664 5.6449C6.1858 4.73277 6.03329 3.77684 6.03329 2.8052C6.03329 2.5203 5.80035 2.28736 5.51544 2.28736H2.8052Z" fill="#282D46"/>
</svg>
