<svg width="32" height="32" viewBox="0 0 32 32" fill="none" xmlns="http://www.w3.org/2000/svg">
    <path fill-rule="evenodd" clip-rule="evenodd" d="M6 8.2565C6 7.01164 7.01164 6 8.2565 6H11.6443C12.8892 6 13.9008 7.01164 13.9008 8.2565C13.9008 9.30428 14.0655 10.3311 14.3886 11.3085L14.3927 11.3209C14.6403 12.1129 14.4449 12.9675 13.8781 13.5661L12.6874 15.1482C13.7417 16.9866 14.9998 18.2443 16.8539 19.3123L18.4831 18.0819C19.0543 17.539 19.9375 17.3653 20.7013 17.6262C21.6702 17.9454 22.6946 18.1089 23.7435 18.1089C24.9884 18.1089 26 19.1205 26 20.3654V23.7435C26 24.9884 24.9884 26 23.7435 26C13.9595 26 6 18.0405 6 8.2565ZM8.2565 7.6092C7.90037 7.6092 7.6092 7.90037 7.6092 8.2565C7.6092 17.1518 14.8482 24.3908 23.7435 24.3908C24.0996 24.3908 24.3908 24.0996 24.3908 23.7435V20.3654C24.3908 20.0093 24.0996 19.7181 23.7435 19.7181C22.5251 19.7181 21.3287 19.5278 20.1926 19.1529L20.1826 19.1496C19.9416 19.0666 19.6894 19.1484 19.5839 19.256L19.542 19.2988L16.9962 21.2215L16.5426 20.9794C14.0071 19.6261 12.3576 17.9786 11.0206 15.4574L10.7809 15.0054L12.6567 12.513L12.6966 12.4731C12.8677 12.302 12.9331 12.0515 12.8583 11.8061C12.4822 10.666 12.2916 9.47105 12.2916 8.2565C12.2916 7.90037 12.0004 7.6092 11.6443 7.6092H8.2565Z" fill="#282D46"/>
</svg>
