<svg width="32" height="32" viewBox="0 0 32 32" fill="none" xmlns="http://www.w3.org/2000/svg">
    <path fill-rule="evenodd" clip-rule="evenodd" d="M20.0799 11.46C20.0799 13.76 19.5012 15.4202 18.7173 16.4639C17.951 17.4841 16.9674 17.96 15.92 17.96C14.8725 17.96 13.8889 17.4841 13.1226 16.4639C12.3387 15.4202 11.76 13.76 11.76 11.46C11.76 9.37368 13.5533 7.56 15.92 7.56C18.2866 7.56 20.0799 9.37368 20.0799 11.46ZM19.1096 18.3206C20.6359 17.0056 21.6399 14.6505 21.6399 11.46C21.6399 8.44453 19.079 6 15.92 6C12.7609 6 10.2 8.44453 10.2 11.46C10.2 14.6506 11.204 17.0056 12.7303 18.3206C8.83259 19.0788 5 21.5937 5 25.3533C5 26.2628 5.73724 27 6.64667 27H25.1933C26.1028 27 26.84 26.2628 26.84 25.3533C26.84 21.5936 23.0074 19.0788 19.1096 18.3206ZM15.1533 19.64H16.6867C20.3722 19.64 25.28 21.6678 25.28 25.3533C25.28 25.4012 25.2412 25.44 25.1933 25.44H6.64667C6.5988 25.44 6.56 25.4012 6.56 25.3533C6.56 21.6678 11.4678 19.64 15.1533 19.64Z" fill="#282D46"/>
</svg>
