<svg width="18" height="18" viewBox="0 0 18 18" fill="none" xmlns="http://www.w3.org/2000/svg">
    <path d="M17.6222 4.96359C17.4082 4.18319 16.7977 3.57901 16.0173 3.37761C14.6138 3 8.98741 3 8.98741 3C8.98741 3 3.36727 3 1.96381 3.37761C1.18971 3.5853 0.585525 4.18948 0.377838 4.96359C0.119802 6.39222 -0.00606878 7.83974 0.00022477 9.29355C-0.00606878 10.7474 0.119802 12.1949 0.377838 13.6235C0.585525 14.3976 1.18971 15.0018 1.96381 15.2095C3.36727 15.5871 8.98741 15.5871 8.98741 15.5871C8.98741 15.5871 14.6076 15.5871 16.011 15.2095C16.7914 15.0081 17.4082 14.4039 17.6222 13.6235C17.8802 12.1949 18.0061 10.7474 17.9998 9.29355C18.0061 7.83974 17.8802 6.39222 17.6222 4.96359Z" fill="#282D46"/>
    <path d="M7.19376 11.9934L11.8636 9.29344L7.19376 6.59351V11.9934Z" fill="white"/>
</svg>
