<svg width="182" height="40" viewBox="0 0 182 40" fill="none" xmlns="http://www.w3.org/2000/svg">
    <path d="M129.699 26.81V17.8995H132.3C133.227 17.8995 133.946 18.0955 134.468 18.4809C134.984 18.8729 135.246 19.4608 135.246 20.2447C135.246 20.6889 135.122 21.0809 134.867 21.4141C134.612 21.7472 134.279 21.9824 133.854 22.1261C134.416 22.198 134.88 22.4397 135.233 22.8578C135.592 23.2759 135.768 23.7724 135.768 24.3342C135.768 25.1312 135.507 25.7452 134.991 26.1698C134.475 26.5945 133.782 26.81 132.92 26.81H129.699ZM130.438 21.8975H132.58C133.194 21.8844 133.671 21.7342 134.011 21.4533C134.351 21.1724 134.514 20.7608 134.514 20.2186C134.514 19.6568 134.325 19.2322 133.952 18.9447C133.58 18.6638 133.025 18.5201 132.306 18.5201H130.438V21.8975ZM130.438 22.5116V26.1894H132.933C133.593 26.1894 134.109 26.0261 134.481 25.6995C134.854 25.3729 135.043 24.9221 135.043 24.3342C135.043 23.7985 134.86 23.3673 134.488 23.0342C134.116 22.701 133.626 22.5246 133.005 22.505H132.907H130.438V22.5116Z" fill="#282D46"/>
    <path d="M139.91 26.9407C139.054 26.9407 138.355 26.6402 137.82 26.0327C137.284 25.4251 137.016 24.6477 137.016 23.694V23.3543C137.016 22.4005 137.284 21.61 137.826 20.9894C138.368 20.3688 139.035 20.0618 139.838 20.0618C140.642 20.0618 141.262 20.3166 141.7 20.8392C142.138 21.3553 142.36 22.0477 142.36 22.9231V23.4915H137.748V23.694C137.748 24.4518 137.937 25.0789 138.323 25.5754C138.702 26.0719 139.231 26.3201 139.904 26.3201C140.309 26.3201 140.681 26.2548 141.021 26.1241C141.36 25.9935 141.641 25.8105 141.863 25.5884L142.177 26.0915C141.942 26.3332 141.641 26.5422 141.262 26.699C140.883 26.8623 140.433 26.9407 139.91 26.9407ZM139.838 20.6889C139.276 20.6889 138.813 20.8915 138.447 21.2965C138.081 21.7015 137.872 22.2111 137.813 22.8317L137.833 22.8708H141.628V22.7206C141.628 22.1327 141.471 21.6492 141.164 21.2638C140.857 20.8784 140.413 20.6889 139.838 20.6889Z" fill="#282D46"/>
    <path d="M148.167 26.8101C148.122 26.5749 148.089 26.3789 148.069 26.209C148.05 26.0392 148.037 25.8693 148.037 25.693C147.808 26.0523 147.488 26.3462 147.076 26.5814C146.665 26.8166 146.188 26.9342 145.659 26.9342C145.012 26.9342 144.509 26.7643 144.15 26.4181C143.79 26.0719 143.614 25.6015 143.614 25.0136C143.614 24.4191 143.875 23.9422 144.391 23.5764C144.908 23.2106 145.58 23.0276 146.41 23.0276H148.037V22.2045C148.037 21.7342 147.886 21.3618 147.586 21.0874C147.285 20.8131 146.861 20.6824 146.312 20.6824C145.809 20.6824 145.404 20.8065 145.097 21.0482C144.79 21.2899 144.633 21.6035 144.633 21.9759H143.954L143.941 21.9367C143.915 21.4402 144.13 21.0025 144.581 20.6236C145.032 20.2447 145.62 20.0553 146.345 20.0553C147.07 20.0553 147.658 20.2382 148.095 20.6106C148.533 20.9829 148.755 21.5121 148.755 22.2111V25.4774C148.755 25.7126 148.768 25.9347 148.794 26.1568C148.821 26.3789 148.866 26.5945 148.925 26.8101H148.167ZM145.731 26.294C146.292 26.294 146.782 26.1633 147.194 25.8955C147.606 25.6276 147.886 25.2814 148.03 24.8633V23.596H146.397C145.803 23.596 145.306 23.7397 144.921 24.0206C144.535 24.3015 144.339 24.6477 144.339 25.0462C144.339 25.4186 144.463 25.7256 144.712 25.9543C144.953 26.1764 145.293 26.294 145.731 26.294Z" fill="#282D46"/>
    <path d="M155.177 25.7322C154.968 26.1176 154.68 26.4181 154.321 26.6271C153.962 26.8362 153.537 26.9407 153.047 26.9407C152.348 26.9407 151.799 26.7055 151.408 26.2286C151.009 25.7583 150.813 25.0201 150.813 24.0271V20.1859H151.545V24.0402C151.545 24.8502 151.682 25.4251 151.956 25.7779C152.231 26.1306 152.623 26.307 153.132 26.307C153.681 26.307 154.125 26.1829 154.452 25.9347C154.778 25.6864 155.014 25.3467 155.144 24.9221V20.1859H155.876V26.81H155.229L155.177 25.7322Z" fill="#282D46"/>
    <path d="M159.09 18.4874V20.1859H160.547V20.7869H159.09V25.105C159.09 25.5362 159.168 25.8432 159.325 26.0261C159.482 26.209 159.691 26.3005 159.952 26.3005C160.044 26.3005 160.129 26.294 160.214 26.2874C160.298 26.2809 160.396 26.2613 160.508 26.2352L160.619 26.7774C160.521 26.8231 160.396 26.8688 160.253 26.895C160.109 26.9276 159.965 26.9407 159.822 26.9407C159.358 26.9407 158.992 26.797 158.737 26.503C158.476 26.209 158.345 25.7452 158.345 25.105V20.7869H157.202V20.1859H158.345V18.4874H159.09Z" fill="#282D46"/>
    <path d="M163.983 25.0201L164.218 25.8106H164.257L166.263 20.1859H167.086L164.205 27.8683C164.035 28.3191 163.813 28.698 163.539 29.0116C163.264 29.3251 162.866 29.4819 162.337 29.4819C162.252 29.4819 162.147 29.4754 162.023 29.4558C161.899 29.4362 161.814 29.4166 161.755 29.397L161.84 28.7829C161.886 28.7894 161.971 28.8025 162.075 28.809C162.186 28.8221 162.265 28.8221 162.311 28.8221C162.631 28.8221 162.885 28.7111 163.075 28.4824C163.264 28.2538 163.428 27.9663 163.565 27.607L163.911 26.7121L161.35 20.1729H162.167L163.983 25.0201Z" fill="#282D46"/>
    <path d="M137.29 33.6497C136.957 33.2447 136.716 32.8658 136.559 32.5327C136.402 32.193 136.317 31.8467 136.317 31.494C136.317 30.8472 136.5 30.3507 136.859 29.998C137.219 29.6452 137.722 29.4688 138.355 29.4688C138.943 29.4688 139.407 29.6322 139.753 29.9653C140.099 30.2985 140.269 30.71 140.269 31.2131C140.269 31.5789 140.178 31.899 139.995 32.1603C139.812 32.4281 139.544 32.6894 139.198 32.9573L138.225 33.702L140.746 36.6482C140.949 36.3608 141.099 36.0342 141.21 35.6749C141.321 35.3156 141.373 34.9301 141.373 34.5251H142.046C142.046 35.0477 141.974 35.5311 141.824 35.9688C141.674 36.4065 141.458 36.805 141.177 37.1578L142.308 38.4774L142.294 38.51H141.458L140.714 37.6477C140.367 37.9678 139.988 38.2095 139.577 38.3794C139.165 38.5492 138.721 38.6342 138.244 38.6342C137.388 38.6342 136.716 38.4186 136.219 37.9809C135.723 37.5432 135.474 36.9618 135.474 36.2367C135.474 35.7467 135.625 35.3025 135.919 34.9105C136.213 34.5186 136.644 34.1136 137.199 33.7085L137.29 33.6497ZM138.244 38.0266C138.617 38.0266 138.989 37.9548 139.342 37.8045C139.701 37.6608 140.021 37.4452 140.309 37.1708L137.774 34.2181C137.754 34.1985 137.735 34.1789 137.722 34.1658C137.709 34.1528 137.695 34.1332 137.689 34.1201L137.401 34.3422C136.931 34.7276 136.611 35.0739 136.448 35.3809C136.284 35.6879 136.206 35.9754 136.206 36.2367C136.206 36.7397 136.382 37.1643 136.729 37.5105C137.081 37.8568 137.584 38.0266 138.244 38.0266ZM137.049 31.4809C137.049 31.7487 137.114 32.0296 137.245 32.3171C137.375 32.6045 137.571 32.9181 137.833 33.2447L138.917 32.4347C139.152 32.2518 139.322 32.0623 139.42 31.8598C139.518 31.6573 139.57 31.4482 139.57 31.2196C139.57 30.8995 139.466 30.6317 139.25 30.4161C139.035 30.207 138.734 30.096 138.355 30.096C137.937 30.096 137.617 30.2266 137.388 30.4945C137.166 30.7623 137.049 31.0889 137.049 31.4809Z" fill="#282D46"/>
    <path d="M153.603 38.5166H152.871V34.4141H147.808V38.5166H147.076V29.5995H147.808V33.7869H152.871V29.5995H153.603V38.5166Z" fill="#282D46"/>
    <path d="M158.352 38.6472C157.496 38.6472 156.797 38.3467 156.261 37.7392C155.726 37.1316 155.458 36.3543 155.458 35.4005V35.0608C155.458 34.107 155.726 33.3166 156.268 32.696C156.81 32.0754 157.476 31.7683 158.28 31.7683C159.083 31.7683 159.704 32.0231 160.142 32.5457C160.579 33.0618 160.802 33.7543 160.802 34.6296V35.198H156.189V35.4005C156.189 36.1583 156.379 36.7854 156.764 37.2819C157.143 37.7784 157.672 38.0266 158.345 38.0266C158.75 38.0266 159.123 37.9613 159.462 37.8306C159.802 37.7 160.083 37.5171 160.305 37.295L160.619 37.798C160.383 38.0397 160.083 38.2487 159.704 38.4055C159.332 38.5688 158.881 38.6472 158.352 38.6472ZM158.286 32.3955C157.725 32.3955 157.261 32.598 156.895 33.003C156.529 33.408 156.32 33.9176 156.261 34.5382L156.281 34.5774H160.076V34.4271C160.076 33.8392 159.92 33.3558 159.613 32.9703C159.299 32.5849 158.861 32.3955 158.286 32.3955Z" fill="#282D46"/>
    <path d="M166.609 38.5166C166.563 38.2814 166.531 38.0854 166.511 37.9156C166.491 37.7457 166.478 37.5759 166.478 37.3995C166.25 37.7588 165.93 38.0528 165.518 38.2879C165.107 38.5231 164.63 38.6407 164.101 38.6407C163.454 38.6407 162.951 38.4708 162.591 38.1246C162.232 37.7784 162.056 37.308 162.056 36.7201C162.056 36.1322 162.317 35.6487 162.833 35.2829C163.349 34.9171 164.022 34.7342 164.852 34.7342H166.478V33.911C166.478 33.4407 166.328 33.0683 166.028 32.794C165.727 32.5196 165.303 32.3889 164.754 32.3889C164.251 32.3889 163.846 32.5131 163.539 32.7548C163.232 32.9965 163.075 33.31 163.075 33.6824H162.395L162.382 33.6432C162.356 33.1467 162.572 32.709 163.023 32.3301C163.473 31.9513 164.061 31.7618 164.786 31.7618C165.512 31.7618 166.1 31.9447 166.537 32.3171C166.975 32.6894 167.197 33.2186 167.197 33.9176V37.1774C167.197 37.4126 167.21 37.6347 167.236 37.8568C167.262 38.0789 167.308 38.2945 167.367 38.51H166.609V38.5166ZM164.172 38.0005C164.734 38.0005 165.224 37.8698 165.636 37.602C166.047 37.3342 166.328 36.9879 166.472 36.5698V35.3025H164.839C164.244 35.3025 163.748 35.4462 163.362 35.7271C162.977 36.008 162.781 36.3543 162.781 36.7528C162.781 37.1251 162.905 37.4322 163.153 37.6608C163.402 37.8829 163.741 38.0005 164.172 38.0005Z" fill="#282D46"/>
    <path d="M170.104 38.5166H169.372V28.9658H170.104V38.5166Z" fill="#282D46"/>
    <path d="M173.403 30.194V31.8924H174.86V32.4935H173.403V36.8115C173.403 37.2427 173.481 37.5497 173.638 37.7326C173.795 37.9156 174.004 38.007 174.265 38.007C174.357 38.007 174.442 38.0005 174.527 37.994C174.612 37.9874 174.71 37.9678 174.821 37.9417L174.932 38.4839C174.834 38.5296 174.71 38.5754 174.566 38.6015C174.422 38.6342 174.278 38.6472 174.135 38.6472C173.671 38.6472 173.305 38.5035 173.05 38.2095C172.789 37.9156 172.658 37.4517 172.658 36.8115V32.4935H171.515V31.8924H172.658V30.194H173.403Z" fill="#282D46"/>
    <path d="M177.153 33.0161C177.375 32.6176 177.675 32.3105 178.035 32.095C178.401 31.8794 178.825 31.7683 179.315 31.7683C180.014 31.7683 180.55 31.9839 180.922 32.4151C181.294 32.8462 181.484 33.5191 181.484 34.4271V38.51H180.752V34.4141C180.752 33.6955 180.609 33.1794 180.328 32.8658C180.047 32.5523 179.655 32.3955 179.152 32.3955C178.636 32.3955 178.211 32.5196 177.878 32.7744C177.545 33.0226 177.303 33.3623 177.146 33.7804V38.51H176.415V28.9658H177.146V33.0161H177.153Z" fill="#282D46"/>
    <path d="M69.8276 22.6291C64.5296 19.7417 61.9884 19.5065 60.0809 17.2854C57.1935 13.6075 61.0804 9.90352 64.8955 9.94925C67.7111 9.99497 71.4477 11.1578 73.0678 15.7241L73.9171 15.306C72.9633 12.3141 70.0824 8.67538 64.5296 8.67538C59.8261 8.67538 57.2719 10.8442 56.2462 12.804C55.3839 14.4503 55.1683 16.3774 55.3839 17.4945C55.9 20.0683 58.1799 22.3221 60.9498 23.5307C63.7131 24.7392 64.3271 24.909 66.803 26.0457C68.9523 27.1236 71.2648 29.3709 71.1211 32.291C70.9774 35.2111 67.7829 37.491 64.2422 37.6085C60.6754 37.7261 56.4291 36.191 54.2342 32.1668L53.5221 32.5392C54.8548 35.4201 58.1407 39 64.5231 39C67.4824 39 69.2985 38.1769 70.9121 37.1709C73.4533 35.5965 75.1322 32.8136 74.8121 29.8804C74.4136 26.5291 73.2312 24.4844 69.8276 22.6291Z" fill="#282D46"/>
    <path d="M100.342 10.694V9.30905H75.8834V10.694H85.7739V38.497H90.4578V10.694H100.342Z" fill="#282D46"/>
    <path d="M0 9.30905V38.4905H19.4739V37.1055H4.68392V24.5955H16.9719V23.204H4.68392V10.694H19.4739V9.30905H0Z" fill="#282D46"/>
    <path d="M103.445 29.8739L110.004 15.2211L116.458 29.8739H103.445ZM112.813 9.30905H107.397L109.272 13.5618L98.1141 38.497H99.5905L102.824 31.2719H117.065L118.326 34.1266C119.633 37.0859 122.559 39 125.8 39L112.813 9.30905Z" fill="#282D46"/>
    <path d="M31.4221 10.694H37.3864C40.0583 10.694 43.39 13.3201 43.39 18.1085C43.39 23.1322 40.1498 25.706 37.393 25.706H31.4221V10.694ZM48.1261 18.1085C48.1261 12.1377 42.0508 9.30905 37.4126 9.30905L26.7382 9.31558V38.5035H31.4221V27.0975H36.5111L41.5674 34.2246C43.6905 37.2231 47.1397 39 50.8111 39L41.5347 26.405C44.8859 25.2422 48.1261 22.6487 48.1261 18.1085Z" fill="#282D46"/>
    <path d="M4.16785 0H9.64876L12.7975 5.85327C9.47238 5.85327 6.40856 4.05025 4.79499 1.13668L4.16785 0Z" fill="#FF3241"/>
</svg>
