<svg width="58" height="48" viewBox="0 0 58 48" fill="none" xmlns="http://www.w3.org/2000/svg">
    <g clip-path="url(#clip0)">
        <path d="M56.8 10.24C56.12 7.76 54.18 5.84 51.7 5.2C47.24 4 29.36 4 29.36 4C29.36 4 11.5 4 7.04003 5.2C4.58003 5.86 2.66003 7.78 2.00003 10.24C1.18003 14.78 0.780031 19.38 0.800031 24C0.780031 28.62 1.18003 33.22 2.00003 37.76C2.66003 40.22 4.58003 42.14 7.04003 42.8C11.5 44 29.36 44 29.36 44C29.36 44 47.22 44 51.68 42.8C54.16 42.16 56.12 40.24 56.8 37.76C57.62 33.22 58.02 28.62 58 24C58.02 19.38 57.62 14.78 56.8 10.24Z" fill="#FF0000"/>
        <path d="M23.6599 32.5799L38.4999 23.9999L23.6599 15.4199V32.5799Z" fill="white"/>
    </g>
    <defs>
        <clipPath id="clip0">
            <rect width="58" height="48" fill="white"/>
        </clipPath>
    </defs>
</svg>
