<svg width="1008" height="313" viewBox="0 0 1008 313" fill="none" xmlns="http://www.w3.org/2000/svg">
    <path opacity="0.2" d="M559.412 181.416C516.968 158.306 496.61 156.424 481.328 138.647C458.196 109.21 489.335 79.5645 519.899 79.9305C542.456 80.2965 572.391 89.6033 585.371 126.151L592.174 122.805C584.533 98.8578 561.453 69.7349 516.968 69.7349C479.287 69.7349 458.824 87.0936 450.607 102.779C443.699 115.955 441.972 131.379 443.699 140.32C447.833 160.921 466.098 178.959 488.288 188.632C510.426 198.305 515.346 199.664 535.181 208.762C552.399 217.389 570.926 235.375 569.775 258.746C568.623 282.118 543.031 300.366 514.665 301.307C486.09 302.248 452.072 289.961 434.488 257.753L428.783 260.733C439.46 283.791 465.784 312.444 516.916 312.444C540.624 312.444 555.173 305.856 568.1 297.804C588.458 285.203 601.908 262.929 599.344 239.453C596.152 212.631 586.679 196.265 559.412 181.416Z" fill="#282D46"/>
    <path opacity="0.2" d="M803.871 85.8911V74.8066H607.927V85.8911H687.163V308.418H724.687V85.8911H803.871Z" fill="#282D46"/>
    <path opacity="0.2" d="M0 74.8066V308.365H156.012V297.281H37.5244V197.154H135.967V186.018H37.5244V85.8911H156.012V74.8066H0Z" fill="#282D46"/>
    <path opacity="0.2" d="M828.73 239.401L881.275 122.125L932.982 239.401H828.73ZM903.779 74.8066H860.393L875.413 108.844L786.024 308.418H797.852L823.758 250.59H937.849L947.95 273.439C958.417 297.124 981.863 312.444 1007.82 312.444L903.779 74.8066Z" fill="#282D46"/>
    <path d="M251.733 85.8911H299.515C320.92 85.8911 347.611 106.91 347.611 145.235C347.611 185.442 321.653 206.043 299.567 206.043H251.733V85.8911ZM385.554 145.235C385.554 97.4462 336.882 74.8066 299.724 74.8066L214.208 74.8589V308.47H251.733V217.18H292.502L333.01 274.223C350.019 298.222 377.652 312.444 407.064 312.444L332.748 211.637C359.596 202.331 385.554 181.573 385.554 145.235Z" fill="#282D46"/>
    <path opacity="0.3" d="M33.39 0.299805H77.2994L102.525 47.1475C75.8863 47.1475 51.341 32.7167 38.4142 9.39746L33.39 0.299805Z" fill="#FF3241"/>
</svg>
